<svg viewBox="0 0 48 48" xmlns="http://www.w3.org/2000/svg" width="1em" height="1em">
  <defs>
    <!-- 青色阴影 -->
    <filter id="cyanShadow" x="-50%" y="-50%" width="200%" height="200%">
      <feDropShadow dx="-2" dy="2" stdDeviation="0" flood-color="#00f2ea" />
    </filter>
    <!-- 粉色阴影 -->
    <filter id="pinkShadow" x="-50%" y="-50%" width="200%" height="200%">
      <feDropShadow dx="2" dy="-2" stdDeviation="0" flood-color="#ff0050" />
    </filter>
  </defs>

  <!-- 粉色阴影层 -->
  <path
    d="M37.7 15v19.7l3.48-3.7a.7.7 0 0 1 .99-.03l1.46 1.37c.28.26.3.7.03.99l-6.26 6.66a2.3 2.3 0 0 1-3.34.01l-6.36-6.66a.7.7 0 0 1 .02-.99l1.45-1.38a.7.7 0 0 1 .99.02l4.14 4.34V15a4.3 4.3 0 0 0-4.3-4.3h-3.5a.7.7 0 0 1-.7-.7V8c0-.39.31-.7.7-.7H30a7.7 7.7 0 0 1 7.7 7.7ZM17.84 17.34 13.7 13v20a4.3 4.3 0 0 0 4.3 4.3h3.5c.39 0 .7.31.7.7v2a.7.7 0 0 1-.7.7H18a7.7 7.7 0 0 1-7.7-7.7V13.63l-3.48 3.7a.7.7 0 0 1-.99.03L4.37 16a.7.7 0 0 1-.03-.98l6.26-6.67a2.3 2.3 0 0 1 3.34-.01l6.36 6.66a.7.7 0 0 1-.02.99l-1.45 1.38a.7.7 0 0 1-.99-.02Z"
    filter="url(#pinkShadow)"
    fill="currentColor"
    opacity="0.7"
  />

  <!-- 青色阴影层 -->
  <path
    d="M37.7 15v19.7l3.48-3.7a.7.7 0 0 1 .99-.03l1.46 1.37c.28.26.3.7.03.99l-6.26 6.66a2.3 2.3 0 0 1-3.34.01l-6.36-6.66a.7.7 0 0 1 .02-.99l1.45-1.38a.7.7 0 0 1 .99.02l4.14 4.34V15a4.3 4.3 0 0 0-4.3-4.3h-3.5a.7.7 0 0 1-.7-.7V8c0-.39.31-.7.7-.7H30a7.7 7.7 0 0 1 7.7 7.7ZM17.84 17.34 13.7 13v20a4.3 4.3 0 0 0 4.3 4.3h3.5c.39 0 .7.31.7.7v2a.7.7 0 0 1-.7.7H18a7.7 7.7 0 0 1-7.7-7.7V13.63l-3.48 3.7a.7.7 0 0 1-.99.03L4.37 16a.7.7 0 0 1-.03-.98l6.26-6.67a2.3 2.3 0 0 1 3.34-.01l6.36 6.66a.7.7 0 0 1-.02.99l-1.45 1.38a.7.7 0 0 1-.99-.02Z"
    filter="url(#cyanShadow)"
    fill="currentColor"
    opacity="0.7"
  />

  <!-- 主图层 -->
  <path
    d="M37.7 15v19.7l3.48-3.7a.7.7 0 0 1 .99-.03l1.46 1.37c.28.26.3.7.03.99l-6.26 6.66a2.3 2.3 0 0 1-3.34.01l-6.36-6.66a.7.7 0 0 1 .02-.99l1.45-1.38a.7.7 0 0 1 .99.02l4.14 4.34V15a4.3 4.3 0 0 0-4.3-4.3h-3.5a.7.7 0 0 1-.7-.7V8c0-.39.31-.7.7-.7H30a7.7 7.7 0 0 1 7.7 7.7ZM17.84 17.34 13.7 13v20a4.3 4.3 0 0 0 4.3 4.3h3.5c.39 0 .7.31.7.7v2a.7.7 0 0 1-.7.7H18a7.7 7.7 0 0 1-7.7-7.7V13.63l-3.48 3.7a.7.7 0 0 1-.99.03L4.37 16a.7.7 0 0 1-.03-.98l6.26-6.67a2.3 2.3 0 0 1 3.34-.01l6.36 6.66a.7.7 0 0 1-.02.99l-1.45 1.38a.7.7 0 0 1-.99-.02Z"
    fill="currentColor"
  />
</svg>
