
<svg xmlns="http://www.w3.org/2000/svg" xmlns:xlink="http://www.w3.org/1999/xlink" width="68" height="60"><defs><path id="b" d="M0 0h60v48.286A3.706 3.706 0 0 1 56.301 52H3.7A3.706 3.706 0 0 1 0 48.286V0zm23.043 6C21.363 6 20 7.343 20 9s1.363 3 3.043 3h13.914C38.637 12 40 10.657 40 9s-1.363-3-3.043-3H23.043z"/><path id="h" d="M0 47.073h24.646l11.439-11.438v-8.568H15.699L0 .141z"/><path id="k" d="m1.471 0 10.194 17.653L.227 37.659H27.36V0z"/><path id="m" d="M.285 0v11.868l11.59 19.907 10.19-17.653h25.891V0z"/><path id="o" d="M.285 0v11.868l11.59 19.907 10.19-17.653h25.891V0z"/><linearGradient id="f" x1="4.547%" x2="36.948%" y1="62.056%" y2="33.661%"><stop offset="0%" stop-color="#A52714" stop-opacity=".6"/><stop offset="66%" stop-color="#A52714" stop-opacity="0"/></linearGradient><linearGradient id="g" x1="83.873%" x2="36.313%" y1="87.776%" y2="66.355%"><stop offset="0%" stop-color="#055524" stop-opacity=".4"/><stop offset="33%" stop-color="#055524" stop-opacity="0"/></linearGradient><linearGradient id="j" x1="32.625%" x2="48.553%" y1="-4.841%" y2="45.414%"><stop offset="0%" stop-color="#EA6100" stop-opacity=".3"/><stop offset="66%" stop-color="#EA6100" stop-opacity="0"/></linearGradient><radialGradient id="q" cx="10.33%" cy="-12.215%" r="226.352%" fx="10.33%" fy="-12.215%" gradientTransform="matrix(1 0 0 .49642 0 -.062)"><stop offset="0%" stop-color="#263238" stop-opacity=".2"/><stop offset="100%" stop-color="#263238" stop-opacity="0"/></radialGradient><filter id="a" width="106.9%" height="116%" x="-3.4%" y="-8%" filterUnits="objectBoundingBox"><feOffset dy="2" in="SourceAlpha" result="shadowOffsetOuter1"/><feGaussianBlur in="shadowOffsetOuter1" result="shadowBlurOuter1" stdDeviation="2"/><feColorMatrix in="shadowBlurOuter1" result="shadowMatrixOuter1" values="0 0 0 0 0 0 0 0 0 0 0 0 0 0 0 0 0 0 0.0831918025 0"/><feMerge><feMergeNode in="shadowMatrixOuter1"/><feMergeNode in="SourceGraphic"/></feMerge></filter><circle id="d" cx="25.89" cy="25.89" r="25.89"/></defs><g fill="none" fill-rule="evenodd" filter="url(#a)" transform="translate(-21 -22)"><g transform="translate(25 24)"><mask id="c" fill="#fff"><use xlink:href="#b"/></mask><use xlink:href="#b" fill="#EEE"/><path fill="#E5E5E5" d="M0 0h60v25.89H0V0zm23 6a3 3 0 0 0 0 6h14a3 3 0 0 0 0-6H23z" mask="url(#c)"/><g mask="url(#c)"><circle cx="25.89" cy="25.89" r="25.89" fill="#D8D8D8" fill-rule="nonzero" transform="translate(4.11 21.78)"/><g transform="translate(4.11 21.78)"><mask id="e" fill="#fff"><use xlink:href="#d"/></mask><g mask="url(#e)"><g fill-rule="nonzero"><path fill="#DB4437" d="M.018 0v31.775h15.681L25.89 14.122h25.89V0z"/><path fill="url(#f)" d="M4.11 0v31.775H15.7l10.19-17.653h25.89V0z"/></g><path fill="#3E2723" fill-opacity=".15" fill-rule="nonzero" d="M15.979 31.672 4.26 11.574l-.17.294 11.633 19.948z"/><g fill-rule="nonzero"><path fill="#0F9D58" d="M0 51.78h24.646l11.439-11.438v-8.567H15.699L0 4.849z"/><path fill="url(#g)" d="M0 47.073h24.646l11.439-11.438v-8.568H15.699L0 .141z" transform="translate(0 4.707)"/></g><g transform="translate(0 4.707)"><mask id="i" fill="#fff"><use xlink:href="#h"/></mask><g fill-rule="nonzero" mask="url(#i)"><path fill="#FFCD40" d="m25.89 9.415 10.195 17.652-11.44 20.006h27.136V9.415z"/><path fill="url(#j)" d="m1.471 0 10.194 17.653L.227 37.659H27.36V0z" transform="translate(24.42 9.415)"/></g></g><g fill-rule="nonzero"><path fill="#FFCD40" d="m25.89 14.122 10.195 17.653-11.44 20.006h27.136V14.122z"/><path fill="url(#j)" d="m1.471 0 10.194 17.653L.227 37.659H27.36V0z" transform="translate(24.42 14.122)"/></g><g transform="translate(24.42 14.122)"><mask id="l" fill="#fff"><use xlink:href="#k"/></mask><g fill-rule="nonzero" mask="url(#l)"><path fill="#DB4437" d="M-20.31-14.122v31.775h11.59L1.47 0h25.89v-14.122z"/><path fill="url(#f)" d="M.285 0v31.775h11.59l10.19-17.653h25.891V0z" transform="translate(-20.595 -14.122)"/></g></g><g transform="translate(3.825)"><mask id="n" fill="#fff"><use xlink:href="#m"/></mask><path fill="#0F9D58" fill-rule="nonzero" d="M-3.825 51.78h24.646L32.26 40.343v-8.567H11.874L-3.825 4.849z" mask="url(#n)"/></g><g transform="translate(3.825)"><mask id="p" fill="#fff"><use xlink:href="#o"/></mask><path fill="url(#g)" fill-rule="nonzero" d="M-3.825 51.78h24.646L32.26 40.343v-8.567H11.874L-3.825 4.849z" mask="url(#p)"/></g><path fill="url(#q)" fill-rule="nonzero" d="M.244 23.21 6.411.203l5.254 3.033z" transform="translate(24.42 28.538)"/><g fill-rule="nonzero" transform="translate(14.122 14.122)"><circle cx="11.768" cy="11.768" r="11.768" fill="#F1F1F1"/><circle cx="11.768" cy="11.768" r="9.415" fill="#4285F4"/></g></g></g></g><path fill="#000" d="M0 25.48h60v1H0z" mask="url(#c)" opacity=".07"/><path fill="#FFF" d="M0 25.89h60v1H0z" mask="url(#c)" opacity=".07"/></g></g></svg>